<svg width="0" height="0" class="hidden">
  <symbol xmlns="http://www.w3.org/2000/svg" viewBox="0 0 75 75" id="icon-logo">
    <path d="M0 19.3L.4 0h2.4l3.6 14.9L10.1 0h2.4l.3 19.3h-2.1l-.1-13-3.4 13H5.7l-3.4-13-.1 13H0zm16.7 0V0h7.5v2h-4.8v6.4h3.9v1.9h-3.9v7.1h4.8v1.9h-7.5zm8.8 3.6v-5.5h.9c.3-.3.6-.5.8-.8.2-.3.5-.7.7-1.2.3-.6.5-1.2.7-2 .2-.8.3-1.8.5-3.1.1-1.3.3-2.8.4-4.5l.3-5.8h8.1v17.4h1.9v5.5h-2.1l-.2-3.5h-9.6l-.2 3.5h-2.2zm3.4-5.5h6.3V2H32l-.2 4.4c0 1-.1 1.8-.1 2.6s-.1 1.5-.2 2.1c0 .6-.1 1.2-.3 1.7-.1.5-.2 1-.3 1.3-.1.3-.2.7-.3 1-.1.3-.3.6-.4.8-.1.2-.2.4-.4.6-.2.2-.3.4-.4.5-.1.1-.3.2-.5.4zM0 46V26.7h2.4v13.4L8 26.7h2V46H7.6V32.4L2 46H0zm14.2 0V26.7h2.7V35h4.9v-8.3h2.7V46h-2.7v-9h-4.9v9h-2.7zm14.6 0V26.7h4.4c1.8 0 3 .4 3.9 1.2.9.8 1.3 2 1.3 3.7 0 2.5-.9 3.8-2.8 4.1 1.1.3 2 .8 2.5 1.6s.8 1.9.8 3.3c0 1.8-.4 3.1-1.2 4.1-.8 1-2 1.5-3.8 1.5l-5.1-.2zm2.7-11.3H33c1.1 0 1.9-.2 2.3-.8.4-.5.7-1.3.7-2.5 0-.4 0-.7-.1-1 0-.3-.1-.5-.2-.7-.1-.2-.2-.4-.4-.5-.2-.1-.3-.2-.5-.3-.2-.1-.4-.1-.7-.2-.3 0-.6 0-.9-.1h-1.7v6.1zm0 9.4h1.8c1.2 0 1.9-.3 2.4-.8.4-.6.7-1.5.7-2.8 0-1.2-.2-2.1-.8-2.8-.5-.6-1.3-.9-2.5-.9h-1.6v7.3zm11 1.9V26.7H50v2h-4.8v6.4h3.9V37h-3.9v7.1H50V46h-7.5zm15.7.2c-.8 0-1.5-.1-2.1-.3-.6-.2-1.1-.5-1.5-.9-.4-.4-.7-.9-1-1.4-.2-.6-.4-1.1-.5-1.8-.1-.6-.1-1.3-.1-2V33c0-.8 0-1.5.1-2.2.1-.6.3-1.2.5-1.8.2-.6.6-1 1-1.4.4-.4.9-.6 1.5-.9.6-.2 1.3-.3 2.1-.3 1.8 0 3 .5 3.8 1.4.8 1 1.1 2.3 1.1 4.1v1.5h-2.6v-3.3c0-.1-.1-.3-.1-.5s-.1-.3-.2-.4l-.3-.3c-.1-.1-.2-.2-.4-.3-.1 0-.3-.1-.5-.1h-.7c-.4 0-.7 0-1 .1-.3.1-.5.2-.7.4-.2.2-.3.4-.4.6-.1.2-.2.5-.2.8 0 .3-.1.7-.1 1v8.8c0 1.5.2 2.5.6 3 .4.6 1 .9 1.9.9.4 0 .7 0 .9-.1.2-.1.5-.2.6-.4.2-.2.3-.4.4-.6.1-.2.2-.5.2-.8 0-.3.1-.6.1-.9v-2.5h2.6v1.4c0 .8 0 1.4-.1 2-.1.6-.2 1.1-.5 1.6-.2.5-.5 1-.9 1.3-.4.3-.9.6-1.4.8-.7.3-1.3.3-2.1.3zm10.7-.2V28.7h-3.5v-2H75v2h-3.4V46h-2.7zM0 72V52.7h7.3v2H2.7V72H0zm10.5 0V52.7h4.8c1.7 0 2.9.5 3.7 1.4.8.9 1.1 2.2 1.1 4 0 1.6-.4 2.8-1.2 3.7-.8.9-2 1.3-3.6 1.3h-2.1v9h-2.7zm2.6-10.9h1.2c1.2 0 2-.2 2.4-.6.4-.4.7-1.2.7-2.4v-1.2c0-.3-.1-.6-.1-.9-.1-.3-.2-.5-.3-.7-.1-.1-.3-.3-.6-.4-.2-.1-.5-.2-.8-.2h-2.4v6.4zM22.8 75v-2.1c1.1.1 1.9.1 2.3-.1.5-.2.8-.5.8-1s0-1.1-.1-1.9L22 52.7h2.6l1.6 8.2 1 6.1.8-6 1.5-8.3h2.6l-3.5 17.2c0 .3-.1.6-.2 1.1-.2 1-.3 1.6-.4 2-.1.4-.4.8-.8 1.2-.4.4-.9.7-1.6.7-.6.1-1.6.1-2.8.1zm12.3-3V52.7h10.6V72H43V54.6h-5.2V72h-2.7zm14.8 0V52.7h10.6V72h-2.7V54.6h-5.2V72h-2.7z"></path>
    <path d="M49.1 34.6h-3.9v-3.9h-2.7v3.9h-3.9v2.6h3.9v3.9h2.7v-3.9h3.9v-2.6z" fill="#00C1B0"></path>
  </symbol>
  <symbol xmlns="http://www.w3.org/2000/svg" viewBox="0 0 23 23" id="icon-facebook">
    <path d="M21.7 0H1.3C.6 0 0 .6 0 1.3v20.5c0 .6.6 1.2 1.3 1.2h10.2v-9.1H8.8v-3.4h2.7V8.1c0-3 2.1-4.6 4.7-4.6 1.3 0 2.6.1 3 .1v3.1h-2.1c-1.4 0-1.7.7-1.7 1.7v2.1h3.4l-.4 3.4h-3V23h6.4c.7 0 1.3-.6 1.3-1.3V1.3C23 .6 22.4 0 21.7 0z"></path>
  </symbol>
  <symbol xmlns="http://www.w3.org/2000/svg" viewBox="0 0 27 15" id="icon-vk">
    <path d="M23.8 10c-.5-.5-.9-.7-1.1-1.2-.1-.2-.1-.3-.1-.4.1-.4.4-.8 2.4-3.5.9-1.1 2-2.4 2-3.4 0-.6-.3-.8-1.3-.8h-4.5c-.4 0-.7.5-.8 1-.2.4-.5 1.1-1.3 2.6s-1.9 2.9-2.4 3.1c-.1.1-.2.1-.3 0-.1 0-.2 0-.4-.2-.1-.2-.3-.5-.2-3.2 0-1.5.2-2.6-.1-3.2-.1-.1-.2-.3-.3-.3-.5-.4-1.8-.5-2.9-.5-1.1 0-2 .1-2.4.2-.5.2-.9.4-1.2.7-.1.2.3.1.7.3.2.1.6.3.7.5.5 1.2.6 2.2.3 3.9-.1.4-.1 1.1-.4 1.5-.2.3-.5.3-.6.2-1-.3-1.7-1.5-2.5-3s-1.2-2.6-1.4-3C5.5.9 5.2.7 4.6.7h-4C.3.7 0 1 0 1.2c0 .6 1.1 2.5 1.8 3.9 1.2 2.4 2.8 4.8 5 7C9 14.5 12.1 15 13.1 15s1.7 0 2-.1c.1 0 .2-.1.3-.1.4-.3.3-.9.4-1.4 0-.5.1-1.1.4-1.5.3-.4.7-.5 1.1-.2.4.2.7.6 1 .9.6.6 1.2 1.4 1.9 1.9.3.2.7.4 1.1.5.5.2 1 .2 1.5.1h1.7c.7 0 1.7 0 2-.2.2-.1.4-.3.4-.7.1-.8-.6-1.9-3.1-4.2z"></path>
  </symbol>
  <symbol xmlns="http://www.w3.org/2000/svg" viewBox="0 0 23 23" id="icon-instagram">
    <path d="M19.7 3.3c-.9-.9-2.1-1.4-3.4-1.4H6.7c-1.3 0-2.5.5-3.4 1.4S1.9 5.4 1.9 6.7v9.6c0 1.3.5 2.5 1.4 3.4s2.1 1.4 3.4 1.4h9.6c1.3 0 2.5-.5 3.4-1.4s1.4-2.1 1.4-3.4V6.7c0-1.3-.5-2.5-1.4-3.4zM6.7 0h9.6C20 0 23 3 23 6.7v9.6c0 3.7-3 6.7-6.7 6.7H6.7C3 23 0 20 0 16.3V6.7C0 3 3 0 6.7 0zm10 5.5c0 .8.7 1.4 1.5 1.4s1.5-.6 1.5-1.4-.7-1.4-1.5-1.4-1.5.6-1.5 1.4zm-1 6.1c0-2.1-1.8-3.8-4-3.8s-4 1.7-4 3.8c0 2.1 1.8 3.8 4 3.8s4-1.7 4-3.8zm-9.9 0c0-3.1 2.7-5.6 6-5.6s6 2.5 6 5.6c0 3.1-2.7 5.6-6 5.6-3.4.1-6-2.5-6-5.6z" fill-rule="evenodd" clip-rule="evenodd"></path>
  </symbol>
  <symbol xmlns="http://www.w3.org/2000/svg" viewBox="0 0 22.9 22.4" id="icon-phone">
    <path d="M21.7 16.5L16.5 14c-.2-.1-.4-.1-.6.1-1 .9-1.9 2.1-2.3 2.7C9 15.1 7 11.6 6.4 10.5 7.7 9.3 8.2 8 8.2 8v-.4L5.9 2.4c0-.2-.2-.3-.5-.3L3 2.2c-.1 0-.2 0-.3.1C-.3 4.3 0 8 0 8.2v.1C.6 10 1.4 12 2.4 13.6c4.2 6.4 10.1 8 10.6 8.2 1.1.4 2.3.7 3.3.7 3.3 0 5.1-2.2 5.3-2.6.3-.6.4-2.3.4-2.8 0-.3-.1-.5-.3-.6zm-1 2.8s-1.4 2-4.3 2c-.9 0-1.9-.2-2.9-.6h-.1c-.1 0-6-1.5-10-7.7-1-1.5-1.7-3.4-2.2-5-.2-.4-.2-3.2 2-4.7l1.9-.1 2 4.6c-.2.4-.6 1.3-1.7 2.1-.2.1-.3.4-.2.6.1.2 2.1 5.3 8.5 7.4.2.1.5 0 .6-.2 0 0 .9-1.5 2-2.5l4.5 2.2c.1.8 0 1.7-.1 1.9z"></path>
    <path d="M5.6 8.7c.1 0 .3-.1.4-.2.2-.2.2-.5 0-.7-1.1-1.1-1.9-3.6-1.9-3.7-.1-.2-.4-.4-.7-.3-.2.1-.4.4-.3.6 0 .1.9 2.8 2.2 4.1.1.2.2.2.3.2zm10 8c-.2.2-.2.6 0 .8.1 0 1.3 1.1 3.8 1.9h.2c.2 0 .4-.2.5-.4.1-.3-.1-.6-.4-.7-2.3-.7-3.4-1.6-3.4-1.6-.1-.3-.5-.2-.7 0zm-3.4-4.1c1.1 0 2-.9 2-2s-.9-2-2-2-2 .9-2 2 .9 2 2 2zm0-2.9c.5 0 .9.4.9.9s-.4.9-.9.9-.9-.4-.9-.9.4-.9.9-.9zm3.1-2.3c.9.9 1.4 2.1 1.4 3.4 0 .3.2.6.5.6s.5-.3.5-.6c0-1.6-.6-3-1.8-4.1C14.8 5.6 13.3 5 11.7 5c-.3 0-.5.2-.5.5s.3.5.5.5c1.5 0 2.7.5 3.6 1.4zm4.2-4.3c-2.1-2-4.9-3.1-7.8-3.1-.3 0-.5.2-.5.5s.3.5.5.5c2.6 0 5.2.9 7.1 2.8 1.9 1.8 3 4.3 3 7 0 .3.2.5.5.5s.5-.2.5-.5c0-2.9-1.1-5.6-3.3-7.7z"></path>
  </symbol>
  <symbol xmlns="http://www.w3.org/2000/svg" viewBox="0 0 9.3 15.6" id="icon-angle">
    <path d="M.4 15.2c-.6-.6-.6-1.5 0-2.1l5.2-5.2L.4 2.6C-.1 2-.1 1 .4.4 1-.1 2-.1 2.6.4l6.3 6.3c.2.3.4.7.4 1.1 0 .4-.2.8-.4 1.1l-6.3 6.3c-.6.5-1.6.5-2.2 0z" fill-rule="evenodd" clip-rule="evenodd"></path>
  </symbol>
  <symbol xmlns="http://www.w3.org/2000/svg" viewBox="0 0 92.2 104" id="icon-doctor">
    <path d="M92.2 98.7l-4.6-26.9c-.5-2.9-2.6-5.2-5.4-6.1L69.8 62c-.3-3-1.5-5.9-3.6-8.2-1.7-1.8-3.7-3.1-6-3.9.4-.4.8-.9 1.1-1.3 3-3.8 4.5-7.9 4.9-10.7h1c2.5 0 4.5-2 4.5-4.5v-2.3c0-1.7-.9-3.2-2.3-3.9v-5.6c0-.8-.7-1.5-1.5-1.5s-1.5.7-1.5 1.5v6.2c-.6.1-1.3.3-2 .6-.1 0-.1.1-.2.1-.2.1-.3.2-.5.2V16.4c0-3.4-2.8-6.1-6.1-6.1h-4.2c-1.4 0-2.9.5-4 1.4l-.4.3c-.8.6-1.7 1-2.7 1-1 0-1.9-.3-2.7-1l-.6-.3c-1.1-.9-2.5-1.4-4-1.4h-4.2c-3.4 0-6.1 2.8-6.1 6.1v12.3c-.2-.1-.3-.2-.5-.2-.1 0-.1-.1-.2-.1-.7-.3-1.4-.5-2-.6V12c0-4.9 4-8.9 8.9-8.9h22.5c4.9 0 8.9 4 8.9 8.9v2.4c0 .8.7 1.5 1.5 1.5s1.5-.7 1.5-1.5V12c0-6.6-5.4-12-12-12H34.9c-6.6 0-12 5.4-12 12v15.1c-1.4.8-2.3 2.3-2.3 3.9v2.3c0 2.5 2 4.5 4.5 4.5h1c.4 2.8 2 7 4.9 10.7.3.4.7.9 1.1 1.3-5.3 1.7-9.1 6.4-9.6 12L10 65.7c-2.8.9-4.9 3.2-5.4 6.1L2.8 82.7c-.1.8.4 1.6 1.2 1.8.8.1 1.6-.4 1.8-1.2l1.9-10.9c.3-1.8 1.5-3.2 3.3-3.7l11.5-3.5v3c-2.6.5-4.9 2.3-5.8 4.8-.2.7-.4 1.4-.5 2.1L15 89.2c-.1 1.1.3 2.1 1 2.9.7.8 1.8 1.2 2.8 1.2h1.9c.8 0 1.5-.7 1.5-1.5s-.7-1.5-1.5-1.5h-1.9c-.2 0-.4-.1-.6-.3-.2-.2-.2-.4-.2-.6l1.1-14.2c0-.4.1-.9.3-1.3.6-1.7 2.4-2.9 4.3-2.9h.3c1.9 0 3.5 1.1 4.3 2.7.2.5.3 1 .4 1.5l1.1 14.2c0 .2-.1.5-.2.6-.2.2-.4.3-.6.3h-1.9c-.8 0-1.5.7-1.5 1.5s.7 1.5 1.5 1.5H29c1.1 0 2.1-.5 2.8-1.2.7-.8 1.1-1.9 1-2.9L31.7 75c-.1-.8-.3-1.6-.6-2.4-1-2.4-3.1-4-5.7-4.5v-3.9l5.2-1.6c.5 1 1.4 3.2 3.3 7.8 1.9 4.7 4.2 10.8 6.5 16.6 0 0 0 .1.1.1 1.5 3.9 3 7.8 4.2 11.1.2.6.8 1 1.4 1 .6 0 1.2-.4 1.4-1 1.2-3.3 2.7-7.2 4.2-11.1 0 0 0-.1.1-.1 2.2-5.9 4.6-11.9 6.5-16.6 1.9-4.7 2.8-6.8 3.3-7.9l5.2 1.6v9c-3.6.7-6.4 3.9-6.4 7.7 0 4.3 3.5 7.9 7.9 7.9 4.3 0 7.9-3.5 7.9-7.9 0-3.8-2.7-7-6.3-7.7V65l11.5 3.5c1.7.5 3 1.9 3.3 3.7l4.6 26.9c.1.4 0 .9-.3 1.2-.3.3-.7.5-1.2.5H4.6c-.5 0-.9-.2-1.2-.5-.3-.3-.4-.8-.3-1.2l1.5-8.9c.1-.8-.4-1.6-1.2-1.8-.8-.1-1.6.4-1.8 1.2L.1 98.5c-.2 1.3.1 2.7 1 3.7s2.1 1.6 3.5 1.6h83.1c1.3 0 2.6-.6 3.5-1.6.8-.8 1.2-2.2 1-3.5zM66.3 30.9c.8-.2 1.5-.2 1.5-.2.3 0 .5-.1.7-.2.1.2.1.4.1.5v2.3c0 .8-.7 1.5-1.5 1.5h-.9v-3.9zm-40.4 3.9H25c-.8 0-1.5-.7-1.5-1.5V31c0-.2 0-.4.1-.5.2.1.5.2.7.2 0 0 .7 0 1.5.2v3.9zm3.1 1.7v-4c.5.1 1 .1 1.4-.1.8-.3 1.3-1.1 1.3-2v-14c0-1.7 1.4-3.1 3.1-3.1H39c.7 0 1.5.3 2.1.7l.4.3c1.3 1.1 2.9 1.6 4.6 1.6 1.7 0 3.3-.6 4.6-1.6l.4-.3c.6-.5 1.3-.7 2.1-.7h4.2c1.7 0 3.1 1.4 3.1 3.1v14.1c0 .9.5 1.6 1.3 2 .3.1.5.2.8.2.2 0 .4 0 .6-.1v4c0 2.2-1.5 6.5-4.4 10.2-.9 1.2-2.2 2.5-3.7 3.6l-.1.1c-2.3 1.7-5.3 3-9 3s-6.7-1.3-9-3l-.1-.1c-1.5-1.1-2.7-2.4-3.7-3.6-2.7-3.7-4.2-8-4.2-10.3zm27.1 24.7l-10 7.5-10-7.5c1-1.3 1.5-2.9 1.5-4.3v-2.5c2.3 1.3 5.1 2.1 8.4 2.1s6.1-.9 8.4-2.1v2.5c.2 1.4.7 3 1.7 4.3zm-22.5-1.7c-.8-.3-1.7-.4-2.6-.1h-.1L25.6 61c.9-4.4 4.4-7.9 9-8.5v4.4c0 .9-.4 1.9-1 2.6zm4.1 12.2c-.1-.2-.2-.4-.2-.6V71c-.1-.2-.1-.4-.2-.6-.2-.6-.4-1.1-.7-1.6v-.1c-.1-.1-.1-.3-.2-.4 0-.1 0-.1-.1-.2s-.1-.3-.2-.4v-.1c-.1-.2-.2-.5-.3-.7 0-.1-.1-.1-.1-.2s-.1-.2-.1-.3c0-.1-.1-.2-.1-.3v-.2c-.2-.4-.3-.8-.5-1.2-.1-.2-.2-.4-.2-.6 0-.1-.1-.2-.1-.3l8.6 6.4-3.6 1.5-1.7.6-.3-.6zm3.7 9.3c-.3-.8-.6-1.6-.9-2.3-.5-1.2-.9-2.4-1.4-3.5l.6-.2 2.3 2.7-.6 3.3zm4.7 12.4c0-.1-.1-.2-.2-.3-.7-1.8-1.6-4.1-2.5-6.7l1.4-7.8h2.5l1.4 7.8c-.9 2.7-1.8 5.1-2.6 7zm1.8-17.8h-3.6l-1.7-2 3.5-1.5 3.5 1.5-1.7 2zm3.9 3.1c-.3.8-.6 1.6-.9 2.3l-.6-3.4 2.3-2.7.6.2c-.5 1.2-.9 2.3-1.4 3.6zM57.6 64c-.1.2-.2.4-.2.6v.1c-.1.2-.2.4-.2.6-.1.2-.1.4-.2.5v.1s0 .1-.1.1c0 .1-.1.2-.1.2 0 .1-.1.2-.1.3v.1c-.1.3-.2.5-.3.8 0 0 0 .1-.1.1-.2.3-.3.4-.3.5 0 .1 0 .1-.1.2s-.1.3-.2.4c0 0 0 .1-.1.1-.2.5-.4 1.1-.6 1.6v.1c-.1.2-.1.4-.2.5v.1c-.1.2-.2.4-.2.6l-.3.6-1.5-.6-3.6-1.5 8.6-6.4c-.1.1-.1.2-.2.3zm3.7-4.6c-.9-.3-1.8-.2-2.7.1-.6-.7-1-1.7-1-2.6v-4.4c4.6.7 8.1 4.1 9 8.5l-5.3-1.6zm11.8 21.5c0 2.7-2.2 4.8-4.8 4.8-2.7 0-4.8-2.2-4.8-4.8s2.2-4.8 4.8-4.8c2.7 0 4.8 2.2 4.8 4.8z"></path>
  </symbol>
  <symbol xmlns="http://www.w3.org/2000/svg" viewBox="0 0 94.2 104" id="icon-student">
    <path d="M58.2 52.8l-7.8-3-4.4-4.4c-.3-.3-.7-.4-1-.4v-3.6c2.1-2.2 3.6-5.1 4.2-8.3.4 0 .8 0 1.2-.1 2.1-.4 3.6-2.4 3.6-4.6v-1.2c0-1.3-.5-2.5-1.4-3.4 1.4-7.7.3-14-3.3-18.1-3.5-4-9.1-6-16.3-5.6-6.7.4-11 3.5-12.3 4.5-1.9.2-7.1 1.6-7.1 9 0 4.1.7 7.5 1.1 9.4-1.7.7-2.7 2.3-2.7 4.2v1.1c0 2.2 1.5 4.2 3.6 4.6.4.1.8.1 1.2.1.6 3.2 2.1 6 4.2 8.3V45c-.4 0-.8.2-1.1.4l-4.5 4.5-8.7 3.4C2.5 54.8-.2 58.9 0 63.4l1.2 31c0 .8.7 1.5 1.5 1.5h.1c.8 0 1.5-.7 1.5-1.6l-1.2-31c0-.8.1-1.6.3-2.4l4.9 4.9c1.4 1.4 2.2 3.3 2.2 5.3v23.2c0 .8.7 1.5 1.5 1.5s1.5-.7 1.5-1.5V71.2c0-2.8-1.1-5.4-3.1-7.4l-5.6-5.6c.8-.9 1.8-1.6 3-2.1l8.1-3.1 6.2 9.3c.8 1.1 2 1.9 3.3 2h.5c.8 0 1.6-.2 2.3-.7l-1.3 30.7c0 .8.6 1.6 1.5 1.6h.1c.8 0 1.5-.6 1.5-1.5L31.2 66h3.5l1.2 28.4c0 .8.7 1.5 1.5 1.5h.1c.8 0 1.5-.7 1.5-1.6l-1.3-30.7c.7.4 1.5.7 2.3.7h.5c1.4-.1 2.6-.9 3.3-2L50 53l7.2 2.8c.2.1.4.1.5.1.6 0 1.2-.4 1.4-1 .3-.9-.1-1.7-.9-2.1zM19.8 32.5c-.3-1.5-1.7-2.6-3.2-2.5h-.4c-.7-.1-1.2-.8-1.2-1.6v-1.1c0-.8.5-1.5 1.2-1.6.6-.1 1.1.1 1.4.6.3.4.7.6 1.1.8.6.2 1.3.1 1.9-.3 1.2-.9 2.3-2 3.1-3.3.5-.7.2-1.7-.5-2.1-.7-.5-1.7-.2-2.1.5-.5.7-1 1.4-1.7 2-.5-.5-1.1-.8-1.8-1-.4-1.5-1.2-4.9-1.2-9.1 0-2.5.8-4.2 2.3-5.2 1.2-.7 2.4-.8 2.4-.8.4 0 .8-.2 1.1-.4 0 0 4-3.7 10.8-4.1 6.2-.3 11 1.2 13.8 4.5 2.9 3.3 3.8 8.5 2.8 14.9-.5 0-1 0-1.5.1l-1.5-3.7c-.3-.7-1.1-1.1-1.8-.9-.1 0-15 3.8-21.2-4-.5-.7-1.5-.8-2.1-.2-.7.5-.8 1.5-.2 2.1 6.3 7.9 18.9 6.1 23 5.3l1.2 2.8c.5 1.2 1.7 1.8 3 1.5.5-.1 1-.1 1.2-.1.7.1 1.2.8 1.2 1.6v1.2c0 .8-.5 1.5-1.2 1.6h-.4c-1.5-.1-2.9 1-3.2 2.5-1.2 6.4-6.7 11-13.2 11-6.4 0-12-4.7-13.1-11zM27 60.8c-.3.3-.7.5-1.2.4-.4 0-.8-.3-1.1-.6l-6.3-9.4 2.6-2.6 9.7 8.5-3.7 3.7zm4.4 2.1l.1-2.3 1.5-1.5 1.5 1.5.1 2.3h-3.2zm1.6-8l-9-7.8v-3.2c2.6 1.7 5.7 2.6 9 2.6s6.4-1 9-2.6v3.2l-9 7.8zm8.2 5.7c-.2.4-.6.6-1.1.6-.3 0-.8 0-1.2-.4L35.2 57l9.7-8.5 2.6 2.6-6.3 9.5z"></path>
    <path d="M94.2 71.5c0-3.5-2.9-6.4-6.4-6.4h-9.9v-3.4c0-2.6-2.1-4.8-4.8-4.8h-9.8c-2.6 0-4.8 2.1-4.8 4.8v3.4h-9.9c-3.5 0-6.4 2.9-6.4 6.4V76c0 1.7.6 3.3 1.6 4.7v16.9c0 3.4 2.8 6.2 6.2 6.2h36.2c3.4 0 6.2-2.8 6.2-6.2V80.8c1.1-1.5 1.6-3.1 1.6-4.7l.2-4.6zm-32.5-9.7c0-1 .8-1.7 1.7-1.7h9.8c1 0 1.7.8 1.7 1.7v3.4H61.7v-3.4zm29.5 14.3c0 2.6-2.5 5.2-6.7 7.1v-.3c0-.8-.7-1.5-1.5-1.5h-6.5c-.8 0-1.5.7-1.5 1.5v4.9c0 2.6 2.1 4.8 4.8 4.8 2.6 0 4.8-2.1 4.8-4.8v-1.3c2-.8 3.7-1.7 5.1-2.7v14c0 1.8-1.4 3.2-3.2 3.2H50.2c-1.8 0-3.2-1.4-3.2-3.2v-14c1.4 1 3.1 1.9 5.1 2.7v1.3c0 2.6 2.1 4.8 4.8 4.8 2.3 0 4.2-1.6 4.7-3.7 2.2.3 4.4.4 6.7.4H70c.8 0 1.5-.7 1.5-1.6 0-.8-.7-1.5-1.6-1.5h-1.6c-2.3 0-4.5-.2-6.6-.5v-2.9c0-.8-.7-1.5-1.5-1.5h-6.5c-.8 0-1.5.7-1.5 1.5v.3c-4.2-1.9-6.7-4.5-6.7-7.1v-4.5c0-1.9 1.5-3.4 3.4-3.4H88c1.9 0 3.4 1.5 3.4 3.4v4.6zm-9.8 8.4v3.4c0 1-.8 1.7-1.7 1.7s-1.7-.8-1.7-1.7v-3.4h3.4zm-26.2 3.3v-3.4h3.5v3.4c0 1-.8 1.7-1.7 1.7-1.1.1-1.8-.7-1.8-1.7z"></path>
  </symbol>
  <symbol xmlns="http://www.w3.org/2000/svg" viewBox="0 0 95 94" id="icon-bag">
    <path d="M93.1 57L90 55.6c-.7-.3-1.5 0-1.8.7-.3.7 0 1.5.7 1.8l3.1 1.4c.2.1.3.2.3.3 0 .1 0 .2-.3.3L66.2 71.4c-.2.1-.4.1-.5 0-8.1-3.5-5.4-2.4-12.6-5.5l9.3-4.2c3.4 2 8.9.5 8.9-2.9 0-2.1-2.4-3.8-5.4-3.8-3.4 0-5.9 2.1-5.3 4.5l-10.9 5c-1.2-.5-8.5-3.7-9.7-4.2-.3-.1-.3-.5 0-.6l25.7-11.2c.2-.1.4-.1.5 0 12.6 5.5-.8-.4 17.4 7.6.7.3 1.5 0 1.8-.7.3-.7 0-1.5-.7-1.8L74.6 49V16.5c0-2.5-2.1-4.6-4.6-4.6H57.2V7.6c0-4.2-3.5-7.6-7.7-7.6h-5.3c-.8 0-1.4.6-1.4 1.4 0 .8.6 1.4 1.4 1.4h5.3c2.7 0 4.9 2.2 4.9 4.9V12h-2.3V7.6C52.2 6.2 51 5 49.5 5H25.1c-1.5 0-2.6 1.2-2.6 2.6V12h-2.3V7.6c0-2.7 2.2-4.9 4.9-4.9h13.5c.8 0 1.4-.6 1.4-1.4 0-.7-.6-1.3-1.4-1.3H25.1c-4.3 0-7.7 3.4-7.7 7.6V12H4.6C2.1 12 0 14 0 16.5v33.6c0 .8.6 1.4 1.4 1.4.8 0 1.4-.6 1.4-1.4V34.5c2.1 2.9 5.3 5.1 9 5.9v4.1c0 1.6 1.3 3 3 3H19c1.7 0 3-1.3 3-3v-3.7h30.7v3.7c0 1.6 1.3 3 3 3h4.2c1.7 0 3-1.3 3-3v-4.1c3.7-.8 6.8-3 9-5.9v13.3l-4.5-1.9c-.9-.4-1.9-.4-2.8 0L38.9 57c-2.6 1.1-2.6 4.6 0 5.7l4.9 2.1v.9H11.1c-4.6 0-8.3-3.7-8.3-8.2v-1.9c0-.8-.6-1.4-1.4-1.4-.8 0-1.4.6-1.4 1.4v1.9c0 6.1 5 11 11.1 11h32.7v10.3c0 2 1.8 3.7 4.6 4.9v1.8l-4.7 6.2c-.5.6-.3 1.5.3 1.9.6.5 1.5.3 2-.3l2.5-3.3v2.4c0 .8.6 1.4 1.4 1.4.8 0 1.4-.6 1.4-1.4V90l2.5 3.3c.3.4.7.6 1.1.6 1.1 0 1.8-1.3 1.1-2.2l-4.7-6.2v-.8c13 3.8 36.9 1.5 36.9-5.9v-14l4.9-2.1c1.2-.5 1.9-1.6 1.9-2.9 0-1.1-.7-2.2-1.9-2.8zm-27.1.7c1.7 0 2.6.8 2.6 1 0 .3-.9 1-2.6 1-1.7 0-2.6-.8-2.6-1 0-.2.9-1 2.6-1zM25.3 7.8h24V12h-24V7.8zm-6.1 36.6c0 .1-.1.2-.2.2h-4.2c-.1 0-.2-.1-.2-.2v-3.7h4.6v3.7zm0-6.4h-4.6v-3.8c0-.1.1-.2.2-.2H19c.1 0 .2.1.2.2V38zm40.9 6.4c0 .1-.1.2-.2.2h-4.2c-.1 0-.2-.1-.2-.2v-3.7h4.6v3.7zm0-6.5h-4.6v-3.8c0-.1.1-.2.2-.2h4.2c.1 0 .2.1.2.2v3.8zm2.8-.4v-3.3c0-1.6-1.3-3-3-3h-4.2c-1.7 0-3 1.3-3 3V38H22v-3.8c0-1.6-1.3-3-3-3h-4.2c-1.7 0-3 1.3-3 3v3.3c-5.2-1.4-9-6.1-9-11.7v-9.3c0-1 .8-1.8 1.8-1.8H70c1.1 0 1.8.9 1.8 1.8v9.3c0 5.6-3.8 10.3-8.9 11.7zM48.4 80.7c-1.4-.8-1.8-1.5-1.8-1.9V66.1l1.8.8v13.8zm37-1.9c0 .6-1.1 1.9-5.1 3.2-7.8 2.4-20.8 2.5-29-.1V68.1c1.3.6-.6-.2 13.3 5.8.9.4 1.9.4 2.8 0l18-7.8v12.7z"></path>
  </symbol>
</svg>